# Blender 4.0.2
# www.blender.org
mtllib msh_cloud_A_01.mtl
o Cloud_01
v -0.336846 0.366969 -0.534414
v -0.336846 0.145607 -0.578446
v -0.336846 -0.075754 -0.534414
v -0.336846 -0.388807 -0.221362
v -0.252134 0.680022 -0.204512
v -0.180319 0.554630 -0.377888
v -0.132334 0.366969 -0.493735
v -0.115484 0.145607 -0.534414
v -0.132334 -0.075754 -0.493735
v -0.180319 -0.263416 -0.377888
v -0.252134 -0.388807 -0.204512
v -0.180319 0.680022 -0.156526
v -0.047623 0.554630 -0.289223
v 0.041042 0.366969 -0.377888
v 0.072177 0.145607 -0.409023
v 0.041042 -0.075754 -0.377888
v -0.047623 -0.263416 -0.289223
v -0.180319 -0.388807 -0.156526
v -0.132334 0.680022 -0.084711
v 0.041042 0.554630 -0.156526
v 0.156889 0.366969 -0.204511
v 0.197569 0.145607 -0.221362
v 0.156889 -0.075754 -0.204511
v 0.041042 -0.263416 -0.156526
v -0.132334 -0.388807 -0.084711
v -0.115484 0.680022 0.000000
v 0.072177 0.554630 0.000000
v 0.197569 0.366969 0.000000
v 0.241600 0.145607 0.000000
v 0.197569 -0.075754 0.000000
v 0.072177 -0.263416 0.000000
v -0.115484 -0.388807 0.000000
v -0.132334 0.680022 0.084712
v 0.041042 0.554630 0.156526
v 0.156889 0.366969 0.204512
v 0.197569 0.145607 0.221362
v 0.156889 -0.075754 0.204512
v 0.041042 -0.263416 0.156526
v -0.132334 -0.388807 0.084712
v -0.180319 0.680022 0.156526
v -0.047623 0.554630 0.289223
v 0.041042 0.366969 0.377888
v 0.072177 0.145607 0.409023
v 0.041042 -0.075754 0.377888
v -0.047623 -0.263416 0.289223
v -0.180319 -0.388807 0.156526
v -0.252134 0.680022 0.204512
v -0.180319 0.554630 0.377888
v -0.132334 0.366969 0.493735
v -0.115484 0.145607 0.534415
v -0.132334 -0.075754 0.493735
v -0.180319 -0.263416 0.377888
v -0.252134 -0.388807 0.204512
v -0.336846 0.680022 0.221362
v -0.336846 0.554630 0.409023
v -0.336846 0.366969 0.534414
v -0.336846 0.145607 0.578446
v -0.336846 -0.075754 0.534414
v -0.336846 -0.263416 0.409023
v -0.336846 -0.388807 0.221362
v -0.336846 -0.432839 0.000000
v -0.336846 0.724053 0.000000
v -0.421557 0.680022 0.204512
v -0.493372 0.554630 0.377888
v -0.541357 0.366969 0.493734
v -0.558208 0.145607 0.534414
v -0.541357 -0.075754 0.493734
v -0.493372 -0.263416 0.377888
v -0.421557 -0.388807 0.204512
v -0.493372 0.680022 0.156526
v -0.626069 0.554630 0.289223
v -0.714734 0.366969 0.377888
v -0.745869 0.145607 0.409023
v -0.714734 -0.075754 0.377888
v -0.626069 -0.263416 0.289223
v -0.493372 -0.388807 0.156526
v -0.541357 0.680022 0.084711
v -0.714734 0.554630 0.156526
v -0.830580 0.366969 0.204511
v -0.871260 0.145607 0.221361
v -0.830580 -0.075754 0.204511
v -0.714734 -0.263416 0.156526
v -0.541357 -0.388807 0.084711
v -0.558207 0.680022 -0.000000
v -0.745869 0.554630 -0.000000
v -0.871260 0.366969 -0.000000
v -0.915292 0.145607 -0.000000
v -0.871260 -0.075754 -0.000000
v -0.745869 -0.263416 -0.000000
v -0.558207 -0.388807 -0.000000
v -0.541357 0.680022 -0.084712
v -0.714734 0.554630 -0.156526
v -0.830580 0.366969 -0.204512
v -0.871260 0.145607 -0.221362
v -0.830580 -0.075754 -0.204512
v -0.714734 -0.263416 -0.156526
v -0.541357 -0.388807 -0.084712
v -0.493372 0.680022 -0.156526
v -0.626068 0.554630 -0.289223
v -0.714734 0.366969 -0.377888
v -0.745869 0.145607 -0.409023
v -0.714734 -0.075754 -0.377888
v -0.626068 -0.263416 -0.289223
v -0.493372 -0.388807 -0.156526
v -0.421557 0.680022 -0.204512
v -0.493372 0.554630 -0.377888
v -0.541357 0.366969 -0.493735
v -0.558207 0.145607 -0.534415
v -0.541357 -0.075754 -0.493735
v -0.493372 -0.263416 -0.377888
v -0.421557 -0.388807 -0.204512
v -0.336846 0.680022 -0.221362
v -0.336845 0.554630 -0.409023
v -0.336845 -0.263416 -0.409023
v 0.336846 -0.003239 -0.343708
v 0.336846 -0.145607 -0.372026
v 0.336846 -0.287976 -0.343708
v 0.336846 -0.489315 -0.142368
v 0.391328 0.198100 -0.131531
v 0.437515 0.117455 -0.243038
v 0.468377 -0.003239 -0.317544
v 0.479214 -0.145607 -0.343708
v 0.468377 -0.287976 -0.317544
v 0.437515 -0.408670 -0.243038
v 0.391328 -0.489315 -0.131531
v 0.437515 0.198100 -0.100670
v 0.522859 0.117455 -0.186013
v 0.579884 -0.003239 -0.243038
v 0.599908 -0.145607 -0.263062
v 0.579884 -0.287976 -0.243038
v 0.522859 -0.408670 -0.186013
v 0.437515 -0.489315 -0.100670
v 0.468377 0.198100 -0.054482
v 0.579884 0.117455 -0.100670
v 0.654390 -0.003239 -0.131531
v 0.680553 -0.145607 -0.142368
v 0.654390 -0.287976 -0.131531
v 0.579884 -0.408670 -0.100670
v 0.468377 -0.489315 -0.054482
v 0.479214 0.198100 0.000000
v 0.599908 0.117455 0.000000
v 0.680553 -0.003239 0.000000
v 0.708872 -0.145607 0.000000
v 0.680553 -0.287976 0.000000
v 0.599908 -0.408670 0.000000
v 0.479214 -0.489315 0.000000
v 0.468377 0.198100 0.054482
v 0.579884 0.117455 0.100670
v 0.654390 -0.003239 0.131531
v 0.680553 -0.145607 0.142369
v 0.654390 -0.287976 0.131531
v 0.579884 -0.408670 0.100670
v 0.468377 -0.489315 0.054482
v 0.437515 0.198100 0.100670
v 0.522859 0.117455 0.186013
v 0.579884 -0.003239 0.243038
v 0.599908 -0.145607 0.263063
v 0.579884 -0.287976 0.243038
v 0.522859 -0.408670 0.186013
v 0.437515 -0.489315 0.100670
v 0.391328 0.198100 0.131531
v 0.437515 0.117455 0.243038
v 0.468377 -0.003239 0.317545
v 0.479214 -0.145607 0.343708
v 0.468377 -0.287976 0.317545
v 0.437515 -0.408670 0.243038
v 0.391328 -0.489315 0.131531
v 0.336845 0.198100 0.142368
v 0.336845 0.117455 0.263062
v 0.336845 -0.003239 0.343708
v 0.336845 -0.145607 0.372027
v 0.336845 -0.287976 0.343708
v 0.336845 -0.408670 0.263062
v 0.336845 -0.489315 0.142368
v 0.336846 -0.517634 0.000000
v 0.336846 0.226419 0.000000
v 0.282364 0.198100 0.131531
v 0.236176 0.117455 0.243038
v 0.205314 -0.003239 0.317544
v 0.194477 -0.145607 0.343708
v 0.205314 -0.287976 0.317544
v 0.236176 -0.408670 0.243038
v 0.282364 -0.489315 0.131531
v 0.236176 0.198100 0.100670
v 0.150832 0.117455 0.186013
v 0.093807 -0.003239 0.243038
v 0.073783 -0.145607 0.263062
v 0.093807 -0.287976 0.243038
v 0.150832 -0.408670 0.186013
v 0.236176 -0.489315 0.100670
v 0.205314 0.198100 0.054482
v 0.093808 0.117455 0.100670
v 0.019301 -0.003239 0.131531
v -0.006862 -0.145607 0.142368
v 0.019301 -0.287976 0.131531
v 0.093808 -0.408670 0.100670
v 0.205314 -0.489315 0.054482
v 0.194477 0.198100 -0.000000
v 0.073783 0.117455 -0.000000
v -0.006862 -0.003239 -0.000000
v -0.035181 -0.145607 -0.000000
v -0.006862 -0.287976 -0.000000
v 0.073783 -0.408670 -0.000000
v 0.194477 -0.489315 -0.000000
v 0.205314 0.198100 -0.054482
v 0.093808 0.117455 -0.100670
v 0.019301 -0.003239 -0.131531
v -0.006862 -0.145607 -0.142368
v 0.019301 -0.287976 -0.131531
v 0.093808 -0.408670 -0.100670
v 0.205314 -0.489315 -0.054482
v 0.236176 0.198100 -0.100670
v 0.150832 0.117455 -0.186013
v 0.093808 -0.003239 -0.243038
v 0.073783 -0.145607 -0.263063
v 0.093808 -0.287976 -0.243038
v 0.150832 -0.408670 -0.186013
v 0.236176 -0.489315 -0.100670
v 0.282364 0.198100 -0.131531
v 0.236176 0.117455 -0.243038
v 0.205314 -0.003239 -0.317544
v 0.194477 -0.145607 -0.343708
v 0.205314 -0.287976 -0.317544
v 0.236176 -0.408670 -0.243038
v 0.282364 -0.489315 -0.131531
v 0.336846 0.198100 -0.142368
v 0.336846 0.117455 -0.263062
v 0.336846 -0.408670 -0.263062
vn -0.0000 -0.9152 -0.4031
vn -0.0000 -0.6952 -0.7189
vn 0.2751 -0.6952 -0.6641
vn 0.1543 -0.9152 -0.3724
vn -0.0000 -0.3744 -0.9273
vn -0.0000 -0.0000 -1.0000
vn 0.3827 -0.0000 -0.9239
vn 0.3549 -0.3744 -0.8567
vn -0.0000 0.3744 -0.9273
vn -0.0000 0.6952 -0.7189
vn 0.2751 0.6952 -0.6641
vn 0.3549 0.3744 -0.8567
vn -0.0000 0.9152 -0.4031
vn -0.0000 1.0000 -0.0000
vn 0.1543 0.9152 -0.3724
vn -0.0000 -1.0000 -0.0000
vn 0.2850 0.9152 -0.2850
vn 0.2850 -0.9152 -0.2850
vn 0.6557 -0.3744 -0.6557
vn 0.5083 -0.6952 -0.5083
vn 0.6557 0.3744 -0.6557
vn 0.7071 -0.0000 -0.7071
vn 0.5083 0.6952 -0.5083
vn 0.8567 -0.3744 -0.3549
vn 0.6641 -0.6952 -0.2751
vn 0.8567 0.3744 -0.3549
vn 0.9239 -0.0000 -0.3827
vn 0.3724 0.9152 -0.1543
vn 0.6641 0.6952 -0.2751
vn 0.3724 -0.9152 -0.1543
vn 0.7189 -0.6952 -0.0000
vn 0.4031 -0.9152 -0.0000
vn 1.0000 -0.0000 -0.0000
vn 0.9273 -0.3744 -0.0000
vn 0.7189 0.6952 -0.0000
vn 0.9273 0.3744 -0.0000
vn 0.4031 0.9152 -0.0000
vn 0.9239 -0.0000 0.3827
vn 0.8567 -0.3744 0.3549
vn 0.6641 0.6952 0.2751
vn 0.8567 0.3744 0.3549
vn 0.3724 0.9152 0.1543
vn 0.3724 -0.9152 0.1543
vn 0.6641 -0.6952 0.2751
vn 0.2850 -0.9152 0.2850
vn 0.6557 -0.3744 0.6557
vn 0.5083 -0.6952 0.5083
vn 0.6557 0.3744 0.6557
vn 0.7071 -0.0000 0.7071
vn 0.2850 0.9152 0.2850
vn 0.5083 0.6952 0.5083
vn 0.3549 0.3744 0.8567
vn 0.3827 -0.0000 0.9239
vn 0.1543 0.9152 0.3724
vn 0.2751 0.6952 0.6641
vn 0.2751 -0.6952 0.6641
vn 0.1543 -0.9152 0.3724
vn 0.3549 -0.3744 0.8567
vn -0.0000 -0.6952 0.7189
vn -0.0000 -0.9152 0.4031
vn -0.0000 -0.0000 1.0000
vn -0.0000 -0.3744 0.9273
vn -0.0000 0.6952 0.7189
vn -0.0000 0.3744 0.9273
vn -0.0000 0.9152 0.4031
vn -0.2751 0.6952 0.6641
vn -0.3549 0.3744 0.8567
vn -0.1543 0.9152 0.3724
vn -0.1543 -0.9152 0.3724
vn -0.3549 -0.3744 0.8567
vn -0.2751 -0.6952 0.6641
vn -0.3827 -0.0000 0.9239
vn -0.2850 -0.9152 0.2850
vn -0.6557 -0.3744 0.6557
vn -0.5083 -0.6952 0.5083
vn -0.6557 0.3744 0.6557
vn -0.7071 -0.0000 0.7071
vn -0.2850 0.9152 0.2850
vn -0.5083 0.6952 0.5083
vn -0.3724 0.9152 0.1543
vn -0.6641 0.6952 0.2751
vn -0.6641 -0.6952 0.2751
vn -0.3724 -0.9152 0.1543
vn -0.9239 -0.0000 0.3827
vn -0.8567 -0.3744 0.3549
vn -0.8567 0.3744 0.3549
vn -0.7189 -0.6952 -0.0000
vn -0.4031 -0.9152 -0.0000
vn -1.0000 -0.0000 -0.0000
vn -0.9273 -0.3744 -0.0000
vn -0.7189 0.6952 -0.0000
vn -0.9273 0.3744 -0.0000
vn -0.4031 0.9152 -0.0000
vn -0.3724 0.9152 -0.1543
vn -0.3724 -0.9152 -0.1543
vn -0.8567 -0.3744 -0.3549
vn -0.6641 -0.6952 -0.2751
vn -0.8567 0.3744 -0.3549
vn -0.9239 -0.0000 -0.3827
vn -0.6641 0.6952 -0.2751
vn -0.6557 -0.3744 -0.6557
vn -0.5083 -0.6952 -0.5083
vn -0.6557 0.3744 -0.6557
vn -0.7071 -0.0000 -0.7071
vn -0.2850 0.9152 -0.2850
vn -0.5083 0.6952 -0.5083
vn -0.2850 -0.9152 -0.2850
vn -0.2751 -0.6952 -0.6641
vn -0.1543 -0.9152 -0.3724
vn -0.3827 -0.0000 -0.9239
vn -0.3549 -0.3744 -0.8567
vn -0.2751 0.6952 -0.6641
vn -0.3549 0.3744 -0.8567
vn -0.1543 0.9152 -0.3724
vt 0.750000 0.125000
vt 0.750000 0.250000
vt 0.687500 0.250000
vt 0.687500 0.125000
vt 0.750000 0.375000
vt 0.750000 0.500000
vt 0.687500 0.500000
vt 0.687500 0.375000
vt 0.750000 0.625000
vt 0.750000 0.750000
vt 0.687500 0.750000
vt 0.687500 0.625000
vt 0.750000 0.875000
vt 0.718750 1.000000
vt 0.687500 0.875000
vt 0.718750 0.000000
vt 0.656250 1.000000
vt 0.625000 0.875000
vt 0.656250 0.000000
vt 0.625000 0.125000
vt 0.625000 0.375000
vt 0.625000 0.250000
vt 0.625000 0.625000
vt 0.625000 0.500000
vt 0.625000 0.750000
vt 0.562500 0.375000
vt 0.562500 0.250000
vt 0.562500 0.625000
vt 0.562500 0.500000
vt 0.562500 0.875000
vt 0.562500 0.750000
vt 0.562500 0.125000
vt 0.593750 1.000000
vt 0.593750 0.000000
vt 0.500000 0.250000
vt 0.500000 0.125000
vt 0.500000 0.500000
vt 0.500000 0.375000
vt 0.500000 0.750000
vt 0.500000 0.625000
vt 0.531250 1.000000
vt 0.500000 0.875000
vt 0.531250 0.000000
vt 0.437500 0.500000
vt 0.437500 0.375000
vt 0.437500 0.750000
vt 0.437500 0.625000
vt 0.468750 1.000000
vt 0.437500 0.875000
vt 0.468750 0.000000
vt 0.437500 0.125000
vt 0.437500 0.250000
vt 0.406250 0.000000
vt 0.375000 0.125000
vt 0.375000 0.375000
vt 0.375000 0.250000
vt 0.375000 0.625000
vt 0.375000 0.500000
vt 0.375000 0.875000
vt 0.375000 0.750000
vt 0.406250 1.000000
vt 0.312500 0.625000
vt 0.312500 0.500000
vt 0.312500 0.875000
vt 0.312500 0.750000
vt 0.312500 0.250000
vt 0.312500 0.125000
vt 0.312500 0.375000
vt 0.343750 1.000000
vt 0.343750 0.000000
vt 0.250000 0.250000
vt 0.250000 0.125000
vt 0.250000 0.500000
vt 0.250000 0.375000
vt 0.250000 0.750000
vt 0.250000 0.625000
vt 0.281250 1.000000
vt 0.250000 0.875000
vt 0.281250 0.000000
vt 0.187500 0.750000
vt 0.187500 0.625000
vt 0.218750 1.000000
vt 0.187500 0.875000
vt 0.218750 0.000000
vt 0.187500 0.125000
vt 0.187500 0.375000
vt 0.187500 0.250000
vt 0.187500 0.500000
vt 0.156250 0.000000
vt 0.125000 0.125000
vt 0.125000 0.375000
vt 0.125000 0.250000
vt 0.125000 0.625000
vt 0.125000 0.500000
vt 0.125000 0.875000
vt 0.125000 0.750000
vt 0.156250 1.000000
vt 0.062500 0.875000
vt 0.062500 0.750000
vt 0.062500 0.250000
vt 0.062500 0.125000
vt 0.062500 0.500000
vt 0.062500 0.375000
vt 0.062500 0.625000
vt 0.093750 1.000000
vt 0.093750 0.000000
vt 0.000000 0.250000
vt 0.000000 0.125000
vt 0.000000 0.500000
vt 0.000000 0.375000
vt 0.000000 0.750000
vt 0.000000 0.625000
vt 0.031250 1.000000
vt 0.000000 0.875000
vt 0.031250 0.000000
vt 1.000000 0.875000
vt 0.968750 1.000000
vt 0.937500 0.875000
vt 0.968750 0.000000
vt 1.000000 0.125000
vt 0.937500 0.125000
vt 1.000000 0.250000
vt 1.000000 0.375000
vt 0.937500 0.375000
vt 0.937500 0.250000
vt 1.000000 0.500000
vt 1.000000 0.625000
vt 0.937500 0.625000
vt 0.937500 0.500000
vt 1.000000 0.750000
vt 0.937500 0.750000
vt 0.875000 0.375000
vt 0.875000 0.250000
vt 0.875000 0.625000
vt 0.875000 0.500000
vt 0.875000 0.875000
vt 0.875000 0.750000
vt 0.875000 0.125000
vt 0.906250 1.000000
vt 0.906250 0.000000
vt 0.812500 0.250000
vt 0.812500 0.125000
vt 0.812500 0.500000
vt 0.812500 0.375000
vt 0.812500 0.750000
vt 0.812500 0.625000
vt 0.843750 1.000000
vt 0.812500 0.875000
vt 0.843750 0.000000
vt 0.781250 1.000000
vt 0.781250 0.000000
s 1
f 4/1/1 114/2/2 10/3/3 11/4/4
f 3/5/5 2/6/6 8/7/7 9/8/8
f 1/9/9 113/10/10 6/11/11 7/12/12
f 112/13/13 62/14/14 5/15/15
f 61/16/16 4/1/1 11/4/4
f 114/2/2 3/5/5 9/8/8 10/3/3
f 2/6/6 1/9/9 7/12/12 8/7/7
f 113/10/10 112/13/13 5/15/15 6/11/11
f 5/15/15 62/17/14 12/18/17
f 61/19/16 11/4/4 18/20/18
f 10/3/3 9/8/8 16/21/19 17/22/20
f 8/7/7 7/12/12 14/23/21 15/24/22
f 6/11/11 5/15/15 12/18/17 13/25/23
f 11/4/4 10/3/3 17/22/20 18/20/18
f 9/8/8 8/7/7 15/24/22 16/21/19
f 7/12/12 6/11/11 13/25/23 14/23/21
f 17/22/20 16/21/19 23/26/24 24/27/25
f 15/24/22 14/23/21 21/28/26 22/29/27
f 13/25/23 12/18/17 19/30/28 20/31/29
f 18/20/18 17/22/20 24/27/25 25/32/30
f 16/21/19 15/24/22 22/29/27 23/26/24
f 14/23/21 13/25/23 20/31/29 21/28/26
f 12/18/17 62/33/14 19/30/28
f 61/34/16 18/20/18 25/32/30
f 25/32/30 24/27/25 31/35/31 32/36/32
f 23/26/24 22/29/27 29/37/33 30/38/34
f 21/28/26 20/31/29 27/39/35 28/40/36
f 19/30/28 62/41/14 26/42/37
f 61/43/16 25/32/30 32/36/32
f 24/27/25 23/26/24 30/38/34 31/35/31
f 22/29/27 21/28/26 28/40/36 29/37/33
f 20/31/29 19/30/28 26/42/37 27/39/35
f 30/38/34 29/37/33 36/44/38 37/45/39
f 28/40/36 27/39/35 34/46/40 35/47/41
f 26/42/37 62/48/14 33/49/42
f 61/50/16 32/36/32 39/51/43
f 31/35/31 30/38/34 37/45/39 38/52/44
f 29/37/33 28/40/36 35/47/41 36/44/38
f 27/39/35 26/42/37 33/49/42 34/46/40
f 32/36/32 31/35/31 38/52/44 39/51/43
f 61/53/16 39/51/43 46/54/45
f 38/52/44 37/45/39 44/55/46 45/56/47
f 36/44/38 35/47/41 42/57/48 43/58/49
f 34/46/40 33/49/42 40/59/50 41/60/51
f 39/51/43 38/52/44 45/56/47 46/54/45
f 37/45/39 36/44/38 43/58/49 44/55/46
f 35/47/41 34/46/40 41/60/51 42/57/48
f 33/49/42 62/61/14 40/59/50
f 43/58/49 42/57/48 49/62/52 50/63/53
f 41/60/51 40/59/50 47/64/54 48/65/55
f 46/54/45 45/56/47 52/66/56 53/67/57
f 44/55/46 43/58/49 50/63/53 51/68/58
f 42/57/48 41/60/51 48/65/55 49/62/52
f 40/59/50 62/69/14 47/64/54
f 61/70/16 46/54/45 53/67/57
f 45/56/47 44/55/46 51/68/58 52/66/56
f 53/67/57 52/66/56 59/71/59 60/72/60
f 51/68/58 50/63/53 57/73/61 58/74/62
f 49/62/52 48/65/55 55/75/63 56/76/64
f 47/64/54 62/77/14 54/78/65
f 61/79/16 53/67/57 60/72/60
f 52/66/56 51/68/58 58/74/62 59/71/59
f 50/63/53 49/62/52 56/76/64 57/73/61
f 48/65/55 47/64/54 54/78/65 55/75/63
f 56/76/64 55/75/63 64/80/66 65/81/67
f 54/78/65 62/82/14 63/83/68
f 61/84/16 60/72/60 69/85/69
f 59/71/59 58/74/62 67/86/70 68/87/71
f 57/73/61 56/76/64 65/81/67 66/88/72
f 55/75/63 54/78/65 63/83/68 64/80/66
f 60/72/60 59/71/59 68/87/71 69/85/69
f 58/74/62 57/73/61 66/88/72 67/86/70
f 61/89/16 69/85/69 76/90/73
f 68/87/71 67/86/70 74/91/74 75/92/75
f 66/88/72 65/81/67 72/93/76 73/94/77
f 64/80/66 63/83/68 70/95/78 71/96/79
f 69/85/69 68/87/71 75/92/75 76/90/73
f 67/86/70 66/88/72 73/94/77 74/91/74
f 65/81/67 64/80/66 71/96/79 72/93/76
f 63/83/68 62/97/14 70/95/78
f 71/96/79 70/95/78 77/98/80 78/99/81
f 76/90/73 75/92/75 82/100/82 83/101/83
f 74/91/74 73/94/77 80/102/84 81/103/85
f 72/93/76 71/96/79 78/99/81 79/104/86
f 70/95/78 62/105/14 77/98/80
f 61/106/16 76/90/73 83/101/83
f 75/92/75 74/91/74 81/103/85 82/100/82
f 73/94/77 72/93/76 79/104/86 80/102/84
f 83/101/83 82/100/82 89/107/87 90/108/88
f 81/103/85 80/102/84 87/109/89 88/110/90
f 79/104/86 78/99/81 85/111/91 86/112/92
f 77/98/80 62/113/14 84/114/93
f 61/115/16 83/101/83 90/108/88
f 82/100/82 81/103/85 88/110/90 89/107/87
f 80/102/84 79/104/86 86/112/92 87/109/89
f 78/99/81 77/98/80 84/114/93 85/111/91
f 84/116/93 62/117/14 91/118/94
f 61/119/16 90/120/88 97/121/95
f 89/122/87 88/123/90 95/124/96 96/125/97
f 87/126/89 86/127/92 93/128/98 94/129/99
f 85/130/91 84/116/93 91/118/94 92/131/100
f 90/120/88 89/122/87 96/125/97 97/121/95
f 88/123/90 87/126/89 94/129/99 95/124/96
f 86/127/92 85/130/91 92/131/100 93/128/98
f 96/125/97 95/124/96 102/132/101 103/133/102
f 94/129/99 93/128/98 100/134/103 101/135/104
f 92/131/100 91/118/94 98/136/105 99/137/106
f 97/121/95 96/125/97 103/133/102 104/138/107
f 95/124/96 94/129/99 101/135/104 102/132/101
f 93/128/98 92/131/100 99/137/106 100/134/103
f 91/118/94 62/139/14 98/136/105
f 61/140/16 97/121/95 104/138/107
f 104/138/107 103/133/102 110/141/108 111/142/109
f 102/132/101 101/135/104 108/143/110 109/144/111
f 100/134/103 99/137/106 106/145/112 107/146/113
f 98/136/105 62/147/14 105/148/114
f 61/149/16 104/138/107 111/142/109
f 103/133/102 102/132/101 109/144/111 110/141/108
f 101/135/104 100/134/103 107/146/113 108/143/110
f 99/137/106 98/136/105 105/148/114 106/145/112
f 109/144/111 108/143/110 2/6/6 3/5/5
f 107/146/113 106/145/112 113/10/10 1/9/9
f 105/148/114 62/150/14 112/13/13
f 61/151/16 111/142/109 4/1/1
f 110/141/108 109/144/111 3/5/5 114/2/2
f 108/143/110 107/146/113 1/9/9 2/6/6
f 106/145/112 105/148/114 112/13/13 113/10/10
f 111/142/109 110/141/108 114/2/2 4/1/1
f 118/1/1 228/2/2 124/3/3 125/4/4
f 117/5/5 116/6/6 122/7/7 123/8/8
f 115/9/9 227/10/10 120/11/11 121/12/12
f 226/13/13 176/14/14 119/15/15
f 175/16/16 118/1/1 125/4/4
f 228/2/2 117/5/5 123/8/8 124/3/3
f 116/6/6 115/9/9 121/12/12 122/7/7
f 227/10/10 226/13/13 119/15/15 120/11/11
f 119/15/15 176/17/14 126/18/17
f 175/19/16 125/4/4 132/20/18
f 124/3/3 123/8/8 130/21/19 131/22/20
f 122/7/7 121/12/12 128/23/21 129/24/22
f 120/11/11 119/15/15 126/18/17 127/25/23
f 125/4/4 124/3/3 131/22/20 132/20/18
f 123/8/8 122/7/7 129/24/22 130/21/19
f 121/12/12 120/11/11 127/25/23 128/23/21
f 131/22/20 130/21/19 137/26/24 138/27/25
f 129/24/22 128/23/21 135/28/26 136/29/27
f 127/25/23 126/18/17 133/30/28 134/31/29
f 132/20/18 131/22/20 138/27/25 139/32/30
f 130/21/19 129/24/22 136/29/27 137/26/24
f 128/23/21 127/25/23 134/31/29 135/28/26
f 126/18/17 176/33/14 133/30/28
f 175/34/16 132/20/18 139/32/30
f 139/32/30 138/27/25 145/35/31 146/36/32
f 137/26/24 136/29/27 143/37/33 144/38/34
f 135/28/26 134/31/29 141/39/35 142/40/36
f 133/30/28 176/41/14 140/42/37
f 175/43/16 139/32/30 146/36/32
f 138/27/25 137/26/24 144/38/34 145/35/31
f 136/29/27 135/28/26 142/40/36 143/37/33
f 134/31/29 133/30/28 140/42/37 141/39/35
f 144/38/34 143/37/33 150/44/38 151/45/39
f 142/40/36 141/39/35 148/46/40 149/47/41
f 140/42/37 176/48/14 147/49/42
f 175/50/16 146/36/32 153/51/43
f 145/35/31 144/38/34 151/45/39 152/52/44
f 143/37/33 142/40/36 149/47/41 150/44/38
f 141/39/35 140/42/37 147/49/42 148/46/40
f 146/36/32 145/35/31 152/52/44 153/51/43
f 175/53/16 153/51/43 160/54/45
f 152/52/44 151/45/39 158/55/46 159/56/47
f 150/44/38 149/47/41 156/57/48 157/58/49
f 148/46/40 147/49/42 154/59/50 155/60/51
f 153/51/43 152/52/44 159/56/47 160/54/45
f 151/45/39 150/44/38 157/58/49 158/55/46
f 149/47/41 148/46/40 155/60/51 156/57/48
f 147/49/42 176/61/14 154/59/50
f 157/58/49 156/57/48 163/62/52 164/63/53
f 155/60/51 154/59/50 161/64/54 162/65/55
f 160/54/45 159/56/47 166/66/56 167/67/57
f 158/55/46 157/58/49 164/63/53 165/68/58
f 156/57/48 155/60/51 162/65/55 163/62/52
f 154/59/50 176/69/14 161/64/54
f 175/70/16 160/54/45 167/67/57
f 159/56/47 158/55/46 165/68/58 166/66/56
f 167/67/57 166/66/56 173/71/59 174/72/60
f 165/68/58 164/63/53 171/73/61 172/74/62
f 163/62/52 162/65/55 169/75/63 170/76/64
f 161/64/54 176/77/14 168/78/65
f 175/79/16 167/67/57 174/72/60
f 166/66/56 165/68/58 172/74/62 173/71/59
f 164/63/53 163/62/52 170/76/64 171/73/61
f 162/65/55 161/64/54 168/78/65 169/75/63
f 170/76/64 169/75/63 178/80/66 179/81/67
f 168/78/65 176/82/14 177/83/68
f 175/84/16 174/72/60 183/85/69
f 173/71/59 172/74/62 181/86/70 182/87/71
f 171/73/61 170/76/64 179/81/67 180/88/72
f 169/75/63 168/78/65 177/83/68 178/80/66
f 174/72/60 173/71/59 182/87/71 183/85/69
f 172/74/62 171/73/61 180/88/72 181/86/70
f 175/89/16 183/85/69 190/90/73
f 182/87/71 181/86/70 188/91/74 189/92/75
f 180/88/72 179/81/67 186/93/76 187/94/77
f 178/80/66 177/83/68 184/95/78 185/96/79
f 183/85/69 182/87/71 189/92/75 190/90/73
f 181/86/70 180/88/72 187/94/77 188/91/74
f 179/81/67 178/80/66 185/96/79 186/93/76
f 177/83/68 176/97/14 184/95/78
f 185/96/79 184/95/78 191/98/80 192/99/81
f 190/90/73 189/92/75 196/100/82 197/101/83
f 188/91/74 187/94/77 194/102/84 195/103/85
f 186/93/76 185/96/79 192/99/81 193/104/86
f 184/95/78 176/105/14 191/98/80
f 175/106/16 190/90/73 197/101/83
f 189/92/75 188/91/74 195/103/85 196/100/82
f 187/94/77 186/93/76 193/104/86 194/102/84
f 197/101/83 196/100/82 203/107/87 204/108/88
f 195/103/85 194/102/84 201/109/89 202/110/90
f 193/104/86 192/99/81 199/111/91 200/112/92
f 191/98/80 176/113/14 198/114/93
f 175/115/16 197/101/83 204/108/88
f 196/100/82 195/103/85 202/110/90 203/107/87
f 194/102/84 193/104/86 200/112/92 201/109/89
f 192/99/81 191/98/80 198/114/93 199/111/91
f 198/116/93 176/117/14 205/118/94
f 175/119/16 204/120/88 211/121/95
f 203/122/87 202/123/90 209/124/96 210/125/97
f 201/126/89 200/127/92 207/128/98 208/129/99
f 199/130/91 198/116/93 205/118/94 206/131/100
f 204/120/88 203/122/87 210/125/97 211/121/95
f 202/123/90 201/126/89 208/129/99 209/124/96
f 200/127/92 199/130/91 206/131/100 207/128/98
f 210/125/97 209/124/96 216/132/101 217/133/102
f 208/129/99 207/128/98 214/134/103 215/135/104
f 206/131/100 205/118/94 212/136/105 213/137/106
f 211/121/95 210/125/97 217/133/102 218/138/107
f 209/124/96 208/129/99 215/135/104 216/132/101
f 207/128/98 206/131/100 213/137/106 214/134/103
f 205/118/94 176/139/14 212/136/105
f 175/140/16 211/121/95 218/138/107
f 218/138/107 217/133/102 224/141/108 225/142/109
f 216/132/101 215/135/104 222/143/110 223/144/111
f 214/134/103 213/137/106 220/145/112 221/146/113
f 212/136/105 176/147/14 219/148/114
f 175/149/16 218/138/107 225/142/109
f 217/133/102 216/132/101 223/144/111 224/141/108
f 215/135/104 214/134/103 221/146/113 222/143/110
f 213/137/106 212/136/105 219/148/114 220/145/112
f 223/144/111 222/143/110 116/6/6 117/5/5
f 221/146/113 220/145/112 227/10/10 115/9/9
f 219/148/114 176/150/14 226/13/13
f 175/151/16 225/142/109 118/1/1
f 224/141/108 223/144/111 117/5/5 228/2/2
f 222/143/110 221/146/113 115/9/9 116/6/6
f 220/145/112 219/148/114 226/13/13 227/10/10
f 225/142/109 224/141/108 228/2/2 118/1/1
